Coordinates
version=1
nRows=13
nColumns=38
inDegrees=no

Units are S.I. units (second, meters, Newtons, ...)
If the header above contains a line with 'inDegrees', this indicates whether rotational values are in degrees (yes) or radians (no).

endheader
time	pelvis_tilt	pelvis_list	pelvis_rotation	pelvis_tx	pelvis_ty	pelvis_tz	hip_flexion_r	hip_adduction_r	hip_rotation_r	knee_angle_r	ankle_angle_r	subtalar_angle_r	mtp_angle_r	hip_flexion_l	hip_adduction_l	hip_rotation_l	knee_angle_l	ankle_angle_l	subtalar_angle_l	mtp_angle_l	lumbar_extension	lumbar_bending	lumbar_rotation	arm_flex_r	arm_add_r	arm_rot_r	elbow_flex_r	pro_sup_r	wrist_flex_r	wrist_dev_r	arm_flex_l	arm_add_l	arm_rot_l	elbow_flex_l	pro_sup_l	wrist_flex_l	wrist_dev_l
0	0.0260493	1.42768	1.58609	0.772153	-0.650032	1.03104	0.391836	-0.0560828	0.0791111	1.21149	-0.300019	0	0	0.247194	0.0377547	-0.402319	0.282797	-0.0600026	0	0	-0.138142	-0.0356598	0.0793138	-0.108614	-0.338709	0.467362	0.543251	0.818861	0	0	-0.021677	-0.529988	0.388754	0.675894	1.17498	0	0
0.01	0.0484005	1.42214	1.56524	0.770069	-0.638846	1.03241	0.424612	-0.0541441	0.0720708	1.20505	-0.293468	0	0	0.236485	0.0395261	-0.40021	0.269763	-0.0602047	0	0	-0.132291	-0.0305864	0.0763908	-0.109495	-0.344845	0.462687	0.550715	0.823731	0	0	-0.0189372	-0.5336	0.382951	0.687454	1.1811	0	0
0.02	0.0782756	1.41911	1.54099	0.76798	-0.627092	1.03412	0.448011	-0.0502209	0.0731555	1.18936	-0.2833	0	0	0.221959	0.0389948	-0.390368	0.259324	-0.0615362	0	0	-0.127992	-0.024546	0.0708038	-0.110433	-0.348079	0.457184	0.554227	0.829988	0	0	-0.0156801	-0.536821	0.375722	0.697239	1.18743	0	0
0.03	0.10898	1.41711	1.51475	0.766034	-0.614854	1.03572	0.468112	-0.045704	0.0758381	1.16947	-0.269841	0	0	0.205027	0.0369746	-0.385186	0.247679	-0.0632834	0	0	-0.12399	-0.0184697	0.0661306	-0.112191	-0.351072	0.452225	0.557649	0.838123	0	0	-0.0142044	-0.539887	0.366689	0.707982	1.1935	0	0
0.04	0.138562	1.41517	1.4885	0.764269	-0.602751	1.03717	0.48675	-0.041863	0.0784156	1.14514	-0.250649	0	0	0.187853	0.0343936	-0.381639	0.235541	-0.0656238	0	0	-0.121388	-0.0129971	0.0618543	-0.113452	-0.353797	0.446373	0.562112	0.848511	0	0	-0.0135032	-0.543567	0.355585	0.721468	1.20259	0	0
0.05	0.168243	1.41268	1.4622	0.762581	-0.59079	1.03847	0.505384	-0.0378607	0.082545	1.11621	-0.230394	0	0	0.171202	0.0311929	-0.379724	0.223482	-0.068254	0	0	-0.119214	-0.00760928	0.0575411	-0.114035	-0.356126	0.441046	0.566329	0.857891	0	0	-0.0119177	-0.547444	0.345556	0.7349	1.21232	0	0
0.06	0.198233	1.41014	1.43785	0.760746	-0.578801	1.03967	0.52035	-0.0350388	0.0811561	1.08169	-0.211387	0	0	0.154279	0.0281148	-0.377439	0.210817	-0.0713009	0	0	-0.116995	-0.00191382	0.0513952	-0.11444	-0.357883	0.43646	0.56947	0.866025	0	0	-0.00955044	-0.550871	0.336212	0.747101	1.22161	0	0
0.07	0.229827	1.40785	1.41437	0.75883	-0.566749	1.04074	0.531796	-0.0335323	0.072701	1.0436	-0.192096	0	0	0.136657	0.0248827	-0.37363	0.197319	-0.0747155	0	0	-0.115216	0.00398111	0.0432853	-0.114611	-0.35899	0.432808	0.571725	0.8733	0	0	-0.00725802	-0.554487	0.326312	0.759758	1.23054	0	0
0.08	0.258829	1.40542	1.39442	0.756959	-0.554741	1.04154	0.544282	-0.0336852	0.0602379	1.00225	-0.179111	0	0	0.119044	0.0219285	-0.369594	0.183156	-0.0784842	0	0	-0.113622	0.00905382	0.0346817	-0.114537	-0.359535	0.430127	0.573531	0.879515	0	0	-0.00484312	-0.558669	0.316119	0.773446	1.23997	0	0
0.09	0.289531	1.40399	1.37399	0.754979	-0.542669	1.04221	0.554684	-0.0354911	0.040363	0.957196	-0.169741	0	0	0.0999447	0.0187986	-0.36591	0.167988	-0.0827271	0	0	-0.113558	0.0144208	0.025153	-0.114421	-0.3603	0.428015	0.575693	0.884413	0	0	-0.0019986	-0.562935	0.306716	0.787346	1.24961	0	0
0.1	0.323843	1.4036	1.35109	0.752885	-0.530555	1.0428	0.562157	-0.0384334	0.0117273	0.907078	-0.163242	0	0	0.0798142	0.0149279	-0.363855	0.153282	-0.0873693	0	0	-0.115434	0.0204246	0.0149712	-0.113643	-0.361232	0.426641	0.57743	0.888467	0	0	0.00184499	-0.566903	0.298131	0.800919	1.25902	0	0
0.11	0.357787	1.40326	1.32895	0.750821	-0.518422	1.04323	0.567417	-0.0417071	-0.01898	0.852726	-0.159105	0	0	0.0600387	0.0108674	-0.362232	0.13935	-0.0921478	0	0	-0.117876	0.026332	0.00477797	-0.112195	-0.361894	0.425995	0.578246	0.891706	0	0	0.00647858	-0.570714	0.290333	0.813804	1.26824	0	0
0.12	0.38981	1.40174	1.30959	0.748757	-0.506198	1.0433	0.571248	-0.0445778	-0.0478423	0.795796	-0.155447	0	0	0.0421356	0.00658759	-0.359591	0.12667	-0.0967257	0	0	-0.118686	0.0321899	-0.00572342	-0.111095	-0.362184	0.425715	0.578089	0.894318	0	0	0.0113546	-0.574294	0.28336	0.82558	1.2772	0	0
